<mxfile host="65bd71144e" modified="2021-01-04T12:35:57.391Z" agent="5.0 (Windows NT 10.0; Win64; x64) AppleWebKit/537.36 (KHTML, like Gecko) Code/1.52.1 Chrome/83.0.4103.122 Electron/9.3.5 Safari/537.36" etag="WXfyn17_jS36cdFnXowL" version="13.10.0" type="embed">
    <diagram id="N8jkDLk7Amj-sibJUGd5" name="Page-1">
        <mxGraphModel dx="990" dy="575" grid="1" gridSize="10" guides="1" tooltips="1" connect="1" arrows="1" fold="1" page="1" pageScale="1" pageWidth="827" pageHeight="1169" math="0" shadow="0">
            <root>
                <mxCell id="0"/>
                <mxCell id="1" parent="0"/>
                <mxCell id="2" value="" style="rounded=1;whiteSpace=wrap;html=1;" vertex="1" parent="1">
                    <mxGeometry x="50" y="550" width="450" height="260" as="geometry"/>
                </mxCell>
                <mxCell id="3" value="region" style="rounded=1;whiteSpace=wrap;html=1;fontSize=18;" vertex="1" parent="1">
                    <mxGeometry x="90" y="570" width="80" height="40" as="geometry"/>
                </mxCell>
                <mxCell id="5" value="region" style="rounded=1;whiteSpace=wrap;html=1;fontSize=18;" vertex="1" parent="1">
                    <mxGeometry x="390" y="570" width="80" height="40" as="geometry"/>
                </mxCell>
                <mxCell id="6" value="region" style="rounded=1;whiteSpace=wrap;html=1;fontSize=18;" vertex="1" parent="1">
                    <mxGeometry x="290" y="570" width="80" height="40" as="geometry"/>
                </mxCell>
                <mxCell id="7" value="region" style="rounded=1;whiteSpace=wrap;html=1;fontSize=18;" vertex="1" parent="1">
                    <mxGeometry x="190" y="570" width="80" height="40" as="geometry"/>
                </mxCell>
                <mxCell id="8" value="region" style="rounded=1;whiteSpace=wrap;html=1;fontSize=18;" vertex="1" parent="1">
                    <mxGeometry x="90" y="690" width="80" height="40" as="geometry"/>
                </mxCell>
                <mxCell id="9" value="region" style="rounded=1;whiteSpace=wrap;html=1;fontSize=18;" vertex="1" parent="1">
                    <mxGeometry x="390" y="690" width="80" height="40" as="geometry"/>
                </mxCell>
                <mxCell id="10" value="region" style="rounded=1;whiteSpace=wrap;html=1;fontSize=18;" vertex="1" parent="1">
                    <mxGeometry x="290" y="690" width="80" height="40" as="geometry"/>
                </mxCell>
                <mxCell id="11" value="region" style="rounded=1;whiteSpace=wrap;html=1;fontSize=18;" vertex="1" parent="1">
                    <mxGeometry x="190" y="690" width="80" height="40" as="geometry"/>
                </mxCell>
                <mxCell id="12" value="region" style="rounded=1;whiteSpace=wrap;html=1;fontSize=18;" vertex="1" parent="1">
                    <mxGeometry x="90" y="750" width="80" height="40" as="geometry"/>
                </mxCell>
                <mxCell id="13" value="region" style="rounded=1;whiteSpace=wrap;html=1;fontSize=18;" vertex="1" parent="1">
                    <mxGeometry x="390" y="750" width="80" height="40" as="geometry"/>
                </mxCell>
                <mxCell id="14" value="region" style="rounded=1;whiteSpace=wrap;html=1;fontSize=18;" vertex="1" parent="1">
                    <mxGeometry x="290" y="750" width="80" height="40" as="geometry"/>
                </mxCell>
                <mxCell id="15" value="region" style="rounded=1;whiteSpace=wrap;html=1;fontSize=18;" vertex="1" parent="1">
                    <mxGeometry x="190" y="750" width="80" height="40" as="geometry"/>
                </mxCell>
                <mxCell id="16" value="region" style="rounded=1;whiteSpace=wrap;html=1;fontSize=18;" vertex="1" parent="1">
                    <mxGeometry x="90" y="630" width="80" height="40" as="geometry"/>
                </mxCell>
                <mxCell id="17" value="region" style="rounded=1;whiteSpace=wrap;html=1;fontSize=18;" vertex="1" parent="1">
                    <mxGeometry x="390" y="630" width="80" height="40" as="geometry"/>
                </mxCell>
                <mxCell id="18" value="region" style="rounded=1;whiteSpace=wrap;html=1;fontSize=18;" vertex="1" parent="1">
                    <mxGeometry x="290" y="630" width="80" height="40" as="geometry"/>
                </mxCell>
                <mxCell id="19" value="region" style="rounded=1;whiteSpace=wrap;html=1;fontSize=18;" vertex="1" parent="1">
                    <mxGeometry x="190" y="630" width="80" height="40" as="geometry"/>
                </mxCell>
            </root>
        </mxGraphModel>
    </diagram>
</mxfile>